# xmcd
#
# Track frame offsets: 
#        150
#        13553
#        39184
#        64543
#        86186
#        92895
#        116279
#        138079
#        162021
#        188224
#        210986
#        231474
#        251886
#
# Disc length: 3596 seconds
#
# Revision: 5
# Processed by: cddbd v1.5.1PL2 Copyright (c) Steve Scherf et al.
# Submitted via: ExactAudioCopy v0.95a3
#
DISCID=a30e0a0d
DTITLE=Nikolo Kotzev - Nostradamus
DYEAR=2001
DGENRE=Metal
TTITLE0=Overture
TTITLE1=Pieces Of Dream
TTITLE2=Desecration
TTITLE3=Introduction
TTITLE4=Home Again
TTITLE5=Henriette
TTITLE6=Caught Up In A Rush
TTITLE7=The Eagle
TTITLE8=Plague
TTITLE9=Inquisition
TTITLE10=The King Will Die
TTITLE11=I Don't Believe
TTITLE12=Try To Live Again
EXTD=YEAR: 2001 feat - alannah myles ,sass jordan , goran edman ,glen 
EXTD=hughus, jorn lande ,doogie white , 
EXTT0=
EXTT1=
EXTT2=
EXTT3=
EXTT4=
EXTT5=
EXTT6=
EXTT7=
EXTT8=
EXTT9=
EXTT10=
EXTT11=
EXTT12=
PLAYORDER=
